<mxfile host="Electron" agent="Mozilla/5.0 (Windows NT 10.0; Win64; x64) AppleWebKit/537.36 (KHTML, like Gecko) draw.io/26.0.16 Chrome/132.0.6834.196 Electron/34.2.0 Safari/537.36" version="26.0.16">
  <diagram name="Page-1" id="zK6pZ6zCqm1qECmIkSwf">
    <mxGraphModel dx="1912" dy="1179" grid="1" gridSize="10" guides="1" tooltips="1" connect="1" arrows="1" fold="1" page="1" pageScale="1" pageWidth="1654" pageHeight="1169" math="0" shadow="0">
      <root>
        <mxCell id="0" />
        <mxCell id="1" parent="0" />
        <mxCell id="xAP91rxddvw90w64hOJK-1" value="&lt;font style=&quot;&quot;&gt;&lt;b style=&quot;font-size: 20px;&quot;&gt;Data Analytics Project&amp;nbsp;&lt;/b&gt;&lt;font style=&quot;font-size: 16px;&quot;&gt;(ERP &amp;amp; CRM data)&lt;/font&gt;&lt;/font&gt;" style="text;html=1;align=center;verticalAlign=middle;whiteSpace=wrap;rounded=0;" parent="1" vertex="1">
          <mxGeometry x="80" y="40" width="360" height="80" as="geometry" />
        </mxCell>
        <mxCell id="aUqH27gMJ72fd8YkMzaE-1" value="&lt;font style=&quot;font-size: 25px;&quot; face=&quot;Comic Sans MS&quot;&gt;Data&lt;/font&gt;&lt;div&gt;&lt;font style=&quot;font-size: 25px;&quot; face=&quot;Comic Sans MS&quot;&gt;Analytics&lt;/font&gt;&lt;/div&gt;" style="ellipse;whiteSpace=wrap;html=1;fillStyle=cross-hatch;fillColor=light-dark(#666666, #1a1a1a);fontColor=#333333;strokeColor=#666666;fontStyle=1" vertex="1" parent="1">
          <mxGeometry x="756" y="164" width="217" height="160" as="geometry" />
        </mxCell>
        <mxCell id="aUqH27gMJ72fd8YkMzaE-2" value="&lt;font style=&quot;font-size: 21px;&quot; face=&quot;Comic Sans MS&quot;&gt;&lt;b&gt;Exploratory&lt;/b&gt;&lt;/font&gt;&lt;div&gt;&lt;font style=&quot;font-size: 21px;&quot; face=&quot;Comic Sans MS&quot;&gt;&lt;b&gt;Data Analysis&lt;/b&gt;&lt;/font&gt;&lt;/div&gt;" style="ellipse;whiteSpace=wrap;html=1;sketch=1;curveFitting=1;jiggle=2;fillColor=#d5e8d4;strokeColor=#82b366;gradientColor=none;fillStyle=cross-hatch;fontStyle=0" vertex="1" parent="1">
          <mxGeometry x="330" y="577.5" width="217" height="160" as="geometry" />
        </mxCell>
        <mxCell id="aUqH27gMJ72fd8YkMzaE-6" value="" style="group;fontStyle=1" vertex="1" connectable="0" parent="1">
          <mxGeometry x="190" y="250" width="230" height="110" as="geometry" />
        </mxCell>
        <mxCell id="aUqH27gMJ72fd8YkMzaE-4" value="&lt;font face=&quot;Comic Sans MS&quot; style=&quot;font-size: 20px;&quot;&gt;&lt;span&gt;Database&lt;/span&gt;&lt;/font&gt;&lt;div&gt;&lt;font face=&quot;Comic Sans MS&quot; style=&quot;font-size: 20px;&quot;&gt;&lt;span&gt;Exploration&lt;/span&gt;&lt;/font&gt;&lt;/div&gt;" style="rounded=1;whiteSpace=wrap;html=1;sketch=1;curveFitting=1;jiggle=2;fillColor=#d5e8d4;strokeColor=#82b366;fillStyle=hatch;fontStyle=1" vertex="1" parent="aUqH27gMJ72fd8YkMzaE-6">
          <mxGeometry x="20" y="20" width="210" height="90" as="geometry" />
        </mxCell>
        <mxCell id="aUqH27gMJ72fd8YkMzaE-5" value="&lt;font style=&quot;font-size: 18px;&quot; face=&quot;Comic Sans MS&quot;&gt;&lt;b style=&quot;&quot;&gt;&lt;i style=&quot;&quot;&gt;1&lt;/i&gt;&lt;/b&gt;&lt;/font&gt;" style="ellipse;whiteSpace=wrap;html=1;aspect=fixed;fillColor=default;strokeColor=#82b366;fillStyle=auto;sketch=1;curveFitting=1;jiggle=2;" vertex="1" parent="aUqH27gMJ72fd8YkMzaE-6">
          <mxGeometry width="50" height="50" as="geometry" />
        </mxCell>
        <mxCell id="aUqH27gMJ72fd8YkMzaE-7" value="" style="group;fontStyle=1" vertex="1" connectable="0" parent="1">
          <mxGeometry x="20" y="467.5" width="230" height="110" as="geometry" />
        </mxCell>
        <mxCell id="aUqH27gMJ72fd8YkMzaE-8" value="&lt;font style=&quot;font-size: 20px;&quot; face=&quot;Comic Sans MS&quot;&gt;&lt;b&gt;Dimensions&lt;/b&gt;&lt;/font&gt;&lt;div&gt;&lt;font style=&quot;font-size: 20px;&quot; face=&quot;Comic Sans MS&quot;&gt;&lt;b&gt;Exploration&lt;/b&gt;&lt;/font&gt;&lt;/div&gt;" style="rounded=1;whiteSpace=wrap;html=1;sketch=1;curveFitting=1;jiggle=2;fillColor=#d5e8d4;strokeColor=#82b366;fillStyle=hatch;" vertex="1" parent="aUqH27gMJ72fd8YkMzaE-7">
          <mxGeometry x="20" y="20" width="210" height="90" as="geometry" />
        </mxCell>
        <mxCell id="aUqH27gMJ72fd8YkMzaE-9" value="&lt;font style=&quot;font-size: 18px;&quot; face=&quot;Comic Sans MS&quot;&gt;&lt;b style=&quot;&quot;&gt;&lt;i style=&quot;&quot;&gt;2&lt;/i&gt;&lt;/b&gt;&lt;/font&gt;" style="ellipse;whiteSpace=wrap;html=1;aspect=fixed;fillColor=default;strokeColor=#82b366;fillStyle=auto;sketch=1;curveFitting=1;jiggle=2;" vertex="1" parent="aUqH27gMJ72fd8YkMzaE-7">
          <mxGeometry width="50" height="50" as="geometry" />
        </mxCell>
        <mxCell id="aUqH27gMJ72fd8YkMzaE-10" value="" style="group;fontStyle=1" vertex="1" connectable="0" parent="1">
          <mxGeometry x="20" y="750" width="230" height="110" as="geometry" />
        </mxCell>
        <mxCell id="aUqH27gMJ72fd8YkMzaE-11" value="&lt;font style=&quot;font-size: 20px;&quot; face=&quot;Comic Sans MS&quot;&gt;&lt;b&gt;Date&lt;/b&gt;&lt;/font&gt;&lt;div&gt;&lt;font style=&quot;font-size: 20px;&quot; face=&quot;Comic Sans MS&quot;&gt;&lt;b&gt;Exploration&lt;/b&gt;&lt;/font&gt;&lt;/div&gt;" style="rounded=1;whiteSpace=wrap;html=1;sketch=1;curveFitting=1;jiggle=2;fillColor=#d5e8d4;strokeColor=#82b366;fillStyle=hatch;" vertex="1" parent="aUqH27gMJ72fd8YkMzaE-10">
          <mxGeometry x="20" y="20" width="210" height="90" as="geometry" />
        </mxCell>
        <mxCell id="aUqH27gMJ72fd8YkMzaE-12" value="&lt;font style=&quot;font-size: 18px;&quot; face=&quot;Comic Sans MS&quot;&gt;&lt;b style=&quot;&quot;&gt;&lt;i style=&quot;&quot;&gt;3&lt;/i&gt;&lt;/b&gt;&lt;/font&gt;" style="ellipse;whiteSpace=wrap;html=1;aspect=fixed;fillColor=default;strokeColor=#82b366;fillStyle=auto;sketch=1;curveFitting=1;jiggle=2;" vertex="1" parent="aUqH27gMJ72fd8YkMzaE-10">
          <mxGeometry width="50" height="50" as="geometry" />
        </mxCell>
        <mxCell id="aUqH27gMJ72fd8YkMzaE-13" value="" style="group" vertex="1" connectable="0" parent="1">
          <mxGeometry x="260" y="970" width="230" height="110" as="geometry" />
        </mxCell>
        <mxCell id="aUqH27gMJ72fd8YkMzaE-14" value="&lt;font style=&quot;font-size: 20px;&quot; face=&quot;Comic Sans MS&quot;&gt;&lt;b&gt;Measures&lt;/b&gt;&lt;/font&gt;&lt;div&gt;&lt;font style=&quot;font-size: 20px;&quot; face=&quot;Comic Sans MS&quot;&gt;&lt;b&gt;Exploration&lt;/b&gt;&lt;/font&gt;&lt;/div&gt;" style="rounded=1;whiteSpace=wrap;html=1;sketch=1;curveFitting=1;jiggle=2;fillColor=#d5e8d4;strokeColor=#82b366;fillStyle=hatch;" vertex="1" parent="aUqH27gMJ72fd8YkMzaE-13">
          <mxGeometry x="20" y="20" width="210" height="90" as="geometry" />
        </mxCell>
        <mxCell id="aUqH27gMJ72fd8YkMzaE-15" value="&lt;font style=&quot;font-size: 18px;&quot; face=&quot;Comic Sans MS&quot;&gt;&lt;b style=&quot;&quot;&gt;&lt;i style=&quot;&quot;&gt;4&lt;/i&gt;&lt;/b&gt;&lt;/font&gt;" style="ellipse;whiteSpace=wrap;html=1;aspect=fixed;fillColor=default;strokeColor=#82b366;fillStyle=auto;sketch=1;curveFitting=1;jiggle=2;" vertex="1" parent="aUqH27gMJ72fd8YkMzaE-13">
          <mxGeometry width="50" height="50" as="geometry" />
        </mxCell>
        <mxCell id="aUqH27gMJ72fd8YkMzaE-16" value="" style="group" vertex="1" connectable="0" parent="1">
          <mxGeometry x="600" y="830" width="230" height="110" as="geometry" />
        </mxCell>
        <mxCell id="aUqH27gMJ72fd8YkMzaE-17" value="&lt;font face=&quot;Comic Sans MS&quot;&gt;&lt;span style=&quot;font-size: 20px;&quot;&gt;&lt;b&gt;Magnitude&lt;/b&gt;&lt;/span&gt;&lt;/font&gt;" style="rounded=1;whiteSpace=wrap;html=1;sketch=1;curveFitting=1;jiggle=2;fillColor=#d5e8d4;strokeColor=#82b366;fillStyle=hatch;" vertex="1" parent="aUqH27gMJ72fd8YkMzaE-16">
          <mxGeometry x="20" y="20" width="210" height="90" as="geometry" />
        </mxCell>
        <mxCell id="aUqH27gMJ72fd8YkMzaE-18" value="&lt;font style=&quot;font-size: 18px;&quot; face=&quot;Comic Sans MS&quot;&gt;&lt;b style=&quot;&quot;&gt;&lt;i style=&quot;&quot;&gt;5&lt;/i&gt;&lt;/b&gt;&lt;/font&gt;" style="ellipse;whiteSpace=wrap;html=1;aspect=fixed;fillColor=default;strokeColor=#82b366;fillStyle=auto;sketch=1;curveFitting=1;jiggle=2;" vertex="1" parent="aUqH27gMJ72fd8YkMzaE-16">
          <mxGeometry width="50" height="50" as="geometry" />
        </mxCell>
        <mxCell id="aUqH27gMJ72fd8YkMzaE-19" value="" style="group" vertex="1" connectable="0" parent="1">
          <mxGeometry x="670" y="530" width="230" height="110" as="geometry" />
        </mxCell>
        <mxCell id="aUqH27gMJ72fd8YkMzaE-20" value="&lt;font face=&quot;Comic Sans MS&quot;&gt;&lt;span style=&quot;font-size: 20px;&quot;&gt;&lt;b&gt;Ranking&lt;/b&gt;&lt;/span&gt;&lt;/font&gt;&lt;div&gt;&lt;font style=&quot;font-size: 18px;&quot; face=&quot;Helvetica&quot;&gt;Top N / Bottom N&lt;/font&gt;&lt;/div&gt;" style="rounded=1;whiteSpace=wrap;html=1;sketch=1;curveFitting=1;jiggle=2;fillColor=#d5e8d4;strokeColor=#82b366;fillStyle=hatch;" vertex="1" parent="aUqH27gMJ72fd8YkMzaE-19">
          <mxGeometry x="20" y="20" width="210" height="90" as="geometry" />
        </mxCell>
        <mxCell id="aUqH27gMJ72fd8YkMzaE-21" value="&lt;font style=&quot;font-size: 18px;&quot; face=&quot;Comic Sans MS&quot;&gt;&lt;b style=&quot;&quot;&gt;&lt;i style=&quot;&quot;&gt;6&lt;/i&gt;&lt;/b&gt;&lt;/font&gt;" style="ellipse;whiteSpace=wrap;html=1;aspect=fixed;fillColor=default;strokeColor=#82b366;fillStyle=auto;sketch=1;curveFitting=1;jiggle=2;" vertex="1" parent="aUqH27gMJ72fd8YkMzaE-19">
          <mxGeometry width="50" height="50" as="geometry" />
        </mxCell>
        <mxCell id="aUqH27gMJ72fd8YkMzaE-43" value="" style="group;fontStyle=0" vertex="1" connectable="0" parent="1">
          <mxGeometry x="1510" y="960" width="230" height="110" as="geometry" />
        </mxCell>
        <mxCell id="aUqH27gMJ72fd8YkMzaE-44" value="&lt;font face=&quot;Comic Sans MS&quot;&gt;&lt;span style=&quot;font-size: 20px;&quot;&gt;&lt;b&gt;Performance&lt;/b&gt;&lt;/span&gt;&lt;/font&gt;&lt;div&gt;&lt;font face=&quot;Comic Sans MS&quot;&gt;&lt;span style=&quot;font-size: 20px;&quot;&gt;&lt;b&gt;Analysis&lt;/b&gt;&lt;/span&gt;&lt;/font&gt;&lt;/div&gt;" style="rounded=1;whiteSpace=wrap;html=1;sketch=1;curveFitting=1;jiggle=2;fillColor=#f8cecc;strokeColor=#b85450;fillStyle=hatch;" vertex="1" parent="aUqH27gMJ72fd8YkMzaE-43">
          <mxGeometry x="20" y="20" width="210" height="90" as="geometry" />
        </mxCell>
        <mxCell id="aUqH27gMJ72fd8YkMzaE-45" value="&lt;font style=&quot;font-size: 18px;&quot; face=&quot;Comic Sans MS&quot;&gt;&lt;b style=&quot;&quot;&gt;&lt;i style=&quot;&quot;&gt;9&lt;/i&gt;&lt;/b&gt;&lt;/font&gt;" style="ellipse;whiteSpace=wrap;html=1;aspect=fixed;fillColor=#FFFFFF;strokeColor=#b85450;fillStyle=auto;sketch=1;curveFitting=1;jiggle=2;" vertex="1" parent="aUqH27gMJ72fd8YkMzaE-43">
          <mxGeometry x="200" y="80" width="50" height="50" as="geometry" />
        </mxCell>
        <mxCell id="aUqH27gMJ72fd8YkMzaE-46" value="" style="group;fontStyle=0" vertex="1" connectable="0" parent="1">
          <mxGeometry x="1600" y="475" width="250" height="135" as="geometry" />
        </mxCell>
        <mxCell id="aUqH27gMJ72fd8YkMzaE-47" value="&lt;font face=&quot;Comic Sans MS&quot;&gt;&lt;span style=&quot;font-size: 20px;&quot;&gt;&lt;b&gt;Data&lt;/b&gt;&lt;/span&gt;&lt;/font&gt;&lt;div&gt;&lt;font face=&quot;Comic Sans MS&quot;&gt;&lt;span style=&quot;font-size: 20px;&quot;&gt;&lt;b&gt;Segmentation&lt;/b&gt;&lt;/span&gt;&lt;/font&gt;&lt;/div&gt;" style="rounded=1;whiteSpace=wrap;html=1;sketch=1;curveFitting=1;jiggle=2;fillColor=#f8cecc;strokeColor=#b85450;fillStyle=hatch;" vertex="1" parent="aUqH27gMJ72fd8YkMzaE-46">
          <mxGeometry x="20" y="20" width="210" height="90" as="geometry" />
        </mxCell>
        <mxCell id="aUqH27gMJ72fd8YkMzaE-48" value="&lt;font style=&quot;font-size: 18px;&quot; face=&quot;Comic Sans MS&quot;&gt;&lt;b style=&quot;&quot;&gt;&lt;i style=&quot;&quot;&gt;11&lt;/i&gt;&lt;/b&gt;&lt;/font&gt;" style="ellipse;whiteSpace=wrap;html=1;aspect=fixed;fillColor=#FFFFFF;strokeColor=#b85450;fillStyle=auto;sketch=1;curveFitting=1;jiggle=2;" vertex="1" parent="aUqH27gMJ72fd8YkMzaE-46">
          <mxGeometry x="200" y="85" width="50" height="50" as="geometry" />
        </mxCell>
        <mxCell id="aUqH27gMJ72fd8YkMzaE-49" value="" style="group;fontStyle=0" vertex="1" connectable="0" parent="1">
          <mxGeometry x="1320" y="250" width="230" height="110" as="geometry" />
        </mxCell>
        <mxCell id="aUqH27gMJ72fd8YkMzaE-50" value="&lt;font face=&quot;Comic Sans MS&quot;&gt;&lt;span style=&quot;font-size: 20px;&quot;&gt;&lt;b&gt;Reporting&lt;/b&gt;&lt;/span&gt;&lt;/font&gt;" style="rounded=1;whiteSpace=wrap;html=1;sketch=1;curveFitting=1;jiggle=2;fillColor=#f8cecc;strokeColor=#b85450;fillStyle=hatch;" vertex="1" parent="aUqH27gMJ72fd8YkMzaE-49">
          <mxGeometry x="20" y="20" width="210" height="90" as="geometry" />
        </mxCell>
        <mxCell id="aUqH27gMJ72fd8YkMzaE-51" value="&lt;font style=&quot;font-size: 18px;&quot; face=&quot;Comic Sans MS&quot;&gt;&lt;b style=&quot;&quot;&gt;&lt;i style=&quot;&quot;&gt;12&lt;/i&gt;&lt;/b&gt;&lt;/font&gt;" style="ellipse;whiteSpace=wrap;html=1;aspect=fixed;fillColor=#FFFFFF;strokeColor=#b85450;fillStyle=auto;sketch=1;curveFitting=1;jiggle=2;" vertex="1" parent="aUqH27gMJ72fd8YkMzaE-49">
          <mxGeometry x="200" y="80" width="50" height="50" as="geometry" />
        </mxCell>
        <mxCell id="aUqH27gMJ72fd8YkMzaE-52" value="" style="group;fontStyle=0" vertex="1" connectable="0" parent="1">
          <mxGeometry x="1610" y="750" width="230" height="110" as="geometry" />
        </mxCell>
        <mxCell id="aUqH27gMJ72fd8YkMzaE-56" value="" style="group" vertex="1" connectable="0" parent="aUqH27gMJ72fd8YkMzaE-52">
          <mxGeometry x="20" y="20" width="230" height="110" as="geometry" />
        </mxCell>
        <mxCell id="aUqH27gMJ72fd8YkMzaE-53" value="&lt;font face=&quot;Comic Sans MS&quot;&gt;&lt;span style=&quot;font-size: 20px;&quot;&gt;&lt;b&gt;Part to Whole&lt;/b&gt;&lt;/span&gt;&lt;/font&gt;&lt;div&gt;&lt;font style=&quot;font-size: 18px;&quot; face=&quot;Helvetica&quot;&gt;Proportion&lt;/font&gt;&lt;/div&gt;" style="rounded=1;whiteSpace=wrap;html=1;sketch=1;curveFitting=1;jiggle=2;fillColor=#f8cecc;strokeColor=#b85450;fillStyle=hatch;" vertex="1" parent="aUqH27gMJ72fd8YkMzaE-56">
          <mxGeometry width="210" height="90" as="geometry" />
        </mxCell>
        <mxCell id="aUqH27gMJ72fd8YkMzaE-54" value="&lt;font style=&quot;font-size: 18px;&quot; face=&quot;Comic Sans MS&quot;&gt;&lt;b style=&quot;&quot;&gt;&lt;i style=&quot;&quot;&gt;10&lt;/i&gt;&lt;/b&gt;&lt;/font&gt;" style="ellipse;whiteSpace=wrap;html=1;aspect=fixed;fillColor=#FFFFFF;strokeColor=#b85450;fillStyle=auto;sketch=1;curveFitting=1;jiggle=2;" vertex="1" parent="aUqH27gMJ72fd8YkMzaE-56">
          <mxGeometry x="180" y="60" width="50" height="50" as="geometry" />
        </mxCell>
        <mxCell id="aUqH27gMJ72fd8YkMzaE-55" value="" style="group" vertex="1" connectable="0" parent="1">
          <mxGeometry x="980" y="737.5" width="240" height="135" as="geometry" />
        </mxCell>
        <mxCell id="aUqH27gMJ72fd8YkMzaE-22" value="" style="group;fontStyle=0" vertex="1" connectable="0" parent="aUqH27gMJ72fd8YkMzaE-55">
          <mxGeometry width="230" height="110" as="geometry" />
        </mxCell>
        <mxCell id="aUqH27gMJ72fd8YkMzaE-23" value="&lt;font face=&quot;Comic Sans MS&quot;&gt;&lt;span style=&quot;font-size: 20px;&quot;&gt;&lt;b&gt;Change-Over-Time&lt;/b&gt;&lt;/span&gt;&lt;/font&gt;&lt;div&gt;&lt;font style=&quot;font-size: 18px;&quot; face=&quot;Helvetica&quot;&gt;Trends&lt;/font&gt;&lt;/div&gt;" style="rounded=1;whiteSpace=wrap;html=1;sketch=1;curveFitting=1;jiggle=2;fillColor=#f8cecc;strokeColor=#b85450;fillStyle=hatch;" vertex="1" parent="aUqH27gMJ72fd8YkMzaE-22">
          <mxGeometry x="20" y="20" width="210" height="90" as="geometry" />
        </mxCell>
        <mxCell id="aUqH27gMJ72fd8YkMzaE-24" value="&lt;font style=&quot;font-size: 18px;&quot; face=&quot;Comic Sans MS&quot;&gt;&lt;b style=&quot;&quot;&gt;&lt;i style=&quot;&quot;&gt;7&lt;/i&gt;&lt;/b&gt;&lt;/font&gt;" style="ellipse;whiteSpace=wrap;html=1;aspect=fixed;fillColor=#FFFFFF;strokeColor=#b85450;fillStyle=auto;sketch=1;curveFitting=1;jiggle=2;" vertex="1" parent="aUqH27gMJ72fd8YkMzaE-55">
          <mxGeometry x="190" y="85" width="50" height="50" as="geometry" />
        </mxCell>
        <mxCell id="aUqH27gMJ72fd8YkMzaE-57" value="" style="group" vertex="1" connectable="0" parent="1">
          <mxGeometry x="1170" y="607.5" width="340" height="130" as="geometry" />
        </mxCell>
        <mxCell id="aUqH27gMJ72fd8YkMzaE-40" value="" style="group;fontStyle=0" vertex="1" connectable="0" parent="aUqH27gMJ72fd8YkMzaE-57">
          <mxGeometry width="340" height="110" as="geometry" />
        </mxCell>
        <mxCell id="aUqH27gMJ72fd8YkMzaE-3" value="&lt;font face=&quot;Comic Sans MS&quot; style=&quot;font-size: 21px;&quot;&gt;&lt;b&gt;Advancded&lt;/b&gt;&lt;/font&gt;&lt;div&gt;&lt;b&gt;&lt;span style=&quot;font-size: 21px; font-family: &amp;quot;Comic Sans MS&amp;quot;; background-color: transparent; color: light-dark(rgb(0, 0, 0), rgb(255, 255, 255));&quot;&gt;Data&amp;nbsp;&lt;/span&gt;&lt;span style=&quot;font-size: 21px; font-family: &amp;quot;Comic Sans MS&amp;quot;; background-color: transparent; color: light-dark(rgb(0, 0, 0), rgb(255, 255, 255));&quot;&gt;Analytics&lt;/span&gt;&lt;/b&gt;&lt;/div&gt;" style="ellipse;whiteSpace=wrap;html=1;sketch=1;curveFitting=1;jiggle=2;fillColor=#f8cecc;strokeColor=#b85450;fillStyle=cross-hatch;fontStyle=0" vertex="1" parent="aUqH27gMJ72fd8YkMzaE-40">
          <mxGeometry x="123" y="-60" width="217" height="160" as="geometry" />
        </mxCell>
        <mxCell id="aUqH27gMJ72fd8YkMzaE-58" value="" style="group" vertex="1" connectable="0" parent="1">
          <mxGeometry x="1116" y="980" width="230" height="110" as="geometry" />
        </mxCell>
        <mxCell id="aUqH27gMJ72fd8YkMzaE-41" value="&lt;font face=&quot;Comic Sans MS&quot;&gt;&lt;span style=&quot;font-size: 20px;&quot;&gt;&lt;b&gt;Cumulative&lt;/b&gt;&lt;/span&gt;&lt;/font&gt;&lt;div&gt;&lt;font face=&quot;Comic Sans MS&quot;&gt;&lt;span style=&quot;font-size: 20px;&quot;&gt;&lt;b&gt;Analysis&lt;/b&gt;&lt;/span&gt;&lt;/font&gt;&lt;/div&gt;" style="rounded=1;whiteSpace=wrap;html=1;sketch=1;curveFitting=1;jiggle=2;fillColor=#f8cecc;strokeColor=#b85450;fillStyle=hatch;" vertex="1" parent="aUqH27gMJ72fd8YkMzaE-58">
          <mxGeometry width="210" height="90" as="geometry" />
        </mxCell>
        <mxCell id="aUqH27gMJ72fd8YkMzaE-42" value="&lt;font style=&quot;font-size: 18px;&quot; face=&quot;Comic Sans MS&quot;&gt;&lt;b style=&quot;&quot;&gt;&lt;i style=&quot;&quot;&gt;8&lt;/i&gt;&lt;/b&gt;&lt;/font&gt;" style="ellipse;whiteSpace=wrap;html=1;aspect=fixed;fillColor=#FFFFFF;strokeColor=#b85450;fillStyle=auto;sketch=1;curveFitting=1;jiggle=2;" vertex="1" parent="aUqH27gMJ72fd8YkMzaE-58">
          <mxGeometry x="180" y="60" width="50" height="50" as="geometry" />
        </mxCell>
        <mxCell id="aUqH27gMJ72fd8YkMzaE-61" value="" style="endArrow=classic;html=1;rounded=0;entryX=0.544;entryY=0.03;entryDx=0;entryDy=0;entryPerimeter=0;sketch=1;curveFitting=1;jiggle=2;curved=0;strokeWidth=5;strokeColor=#B3B3B3;" edge="1" parent="1" source="aUqH27gMJ72fd8YkMzaE-1" target="aUqH27gMJ72fd8YkMzaE-2">
          <mxGeometry width="50" height="50" relative="1" as="geometry">
            <mxPoint x="560" y="380" as="sourcePoint" />
            <mxPoint x="610" y="330" as="targetPoint" />
          </mxGeometry>
        </mxCell>
        <mxCell id="aUqH27gMJ72fd8YkMzaE-62" value="" style="endArrow=classic;html=1;rounded=0;sketch=1;curveFitting=1;jiggle=2;curved=0;strokeWidth=5;strokeColor=#B3B3B3;" edge="1" parent="1" source="aUqH27gMJ72fd8YkMzaE-1" target="aUqH27gMJ72fd8YkMzaE-3">
          <mxGeometry width="50" height="50" relative="1" as="geometry">
            <mxPoint x="780" y="208" as="sourcePoint" />
            <mxPoint x="458" y="592" as="targetPoint" />
          </mxGeometry>
        </mxCell>
        <mxCell id="aUqH27gMJ72fd8YkMzaE-63" value="" style="endArrow=none;dashed=1;html=1;strokeWidth=1;rounded=0;entryX=0.556;entryY=0.967;entryDx=0;entryDy=0;entryPerimeter=0;sketch=1;curveFitting=1;jiggle=2;fillColor=#d5e8d4;strokeColor=#82b366;" edge="1" parent="1" source="aUqH27gMJ72fd8YkMzaE-2" target="aUqH27gMJ72fd8YkMzaE-4">
          <mxGeometry width="50" height="50" relative="1" as="geometry">
            <mxPoint x="340" y="590" as="sourcePoint" />
            <mxPoint x="390" y="540" as="targetPoint" />
          </mxGeometry>
        </mxCell>
        <mxCell id="aUqH27gMJ72fd8YkMzaE-64" value="" style="endArrow=none;dashed=1;html=1;strokeWidth=1;rounded=0;entryX=0.997;entryY=0.387;entryDx=0;entryDy=0;entryPerimeter=0;exitX=0.071;exitY=0.255;exitDx=0;exitDy=0;exitPerimeter=0;sketch=1;curveFitting=1;jiggle=2;fillColor=#d5e8d4;strokeColor=#82b366;" edge="1" parent="1" source="aUqH27gMJ72fd8YkMzaE-2" target="aUqH27gMJ72fd8YkMzaE-8">
          <mxGeometry width="50" height="50" relative="1" as="geometry">
            <mxPoint x="420" y="590" as="sourcePoint" />
            <mxPoint x="337" y="367" as="targetPoint" />
          </mxGeometry>
        </mxCell>
        <mxCell id="aUqH27gMJ72fd8YkMzaE-65" value="" style="endArrow=none;dashed=1;html=1;strokeWidth=1;rounded=0;entryX=0.876;entryY=0.004;entryDx=0;entryDy=0;entryPerimeter=0;exitX=0.077;exitY=0.797;exitDx=0;exitDy=0;exitPerimeter=0;sketch=1;curveFitting=1;jiggle=2;fillColor=#d5e8d4;strokeColor=#82b366;" edge="1" parent="1" source="aUqH27gMJ72fd8YkMzaE-2" target="aUqH27gMJ72fd8YkMzaE-11">
          <mxGeometry width="50" height="50" relative="1" as="geometry">
            <mxPoint x="329" y="737.5" as="sourcePoint" />
            <mxPoint x="230" y="637.5" as="targetPoint" />
          </mxGeometry>
        </mxCell>
        <mxCell id="aUqH27gMJ72fd8YkMzaE-66" value="" style="endArrow=none;dashed=1;html=1;strokeWidth=1;rounded=0;entryX=0.552;entryY=0.063;entryDx=0;entryDy=0;entryPerimeter=0;exitX=0.347;exitY=1.014;exitDx=0;exitDy=0;exitPerimeter=0;sketch=1;curveFitting=1;jiggle=2;fillColor=#d5e8d4;strokeColor=#82b366;" edge="1" parent="1" source="aUqH27gMJ72fd8YkMzaE-2" target="aUqH27gMJ72fd8YkMzaE-14">
          <mxGeometry width="50" height="50" relative="1" as="geometry">
            <mxPoint x="357" y="715" as="sourcePoint" />
            <mxPoint x="234" y="780" as="targetPoint" />
          </mxGeometry>
        </mxCell>
        <mxCell id="aUqH27gMJ72fd8YkMzaE-67" value="" style="endArrow=none;dashed=1;html=1;strokeWidth=1;rounded=0;exitX=0.802;exitY=0.889;exitDx=0;exitDy=0;exitPerimeter=0;sketch=1;curveFitting=1;jiggle=2;fillColor=#d5e8d4;strokeColor=#82b366;" edge="1" parent="1" source="aUqH27gMJ72fd8YkMzaE-2" target="aUqH27gMJ72fd8YkMzaE-17">
          <mxGeometry width="50" height="50" relative="1" as="geometry">
            <mxPoint x="415" y="750" as="sourcePoint" />
            <mxPoint x="406" y="1006" as="targetPoint" />
          </mxGeometry>
        </mxCell>
        <mxCell id="aUqH27gMJ72fd8YkMzaE-68" value="" style="endArrow=none;dashed=1;html=1;strokeWidth=1;rounded=0;entryX=0.003;entryY=0.611;entryDx=0;entryDy=0;entryPerimeter=0;exitX=0.919;exitY=0.23;exitDx=0;exitDy=0;exitPerimeter=0;sketch=1;curveFitting=1;jiggle=2;fillColor=#d5e8d4;strokeColor=#82b366;" edge="1" parent="1" source="aUqH27gMJ72fd8YkMzaE-2" target="aUqH27gMJ72fd8YkMzaE-20">
          <mxGeometry width="50" height="50" relative="1" as="geometry">
            <mxPoint x="514" y="730" as="sourcePoint" />
            <mxPoint x="687" y="866" as="targetPoint" />
          </mxGeometry>
        </mxCell>
        <mxCell id="aUqH27gMJ72fd8YkMzaE-69" value="" style="endArrow=none;dashed=1;html=1;strokeWidth=1;rounded=0;entryX=0.014;entryY=0.434;entryDx=0;entryDy=0;entryPerimeter=0;exitX=0.559;exitY=-0.006;exitDx=0;exitDy=0;exitPerimeter=0;sketch=1;curveFitting=1;jiggle=2;fillColor=#f8cecc;strokeColor=#b85450;" edge="1" parent="1" source="aUqH27gMJ72fd8YkMzaE-23" target="aUqH27gMJ72fd8YkMzaE-3">
          <mxGeometry width="50" height="50" relative="1" as="geometry">
            <mxPoint x="1019" y="639" as="sourcePoint" />
            <mxPoint x="1181" y="630" as="targetPoint" />
          </mxGeometry>
        </mxCell>
        <mxCell id="aUqH27gMJ72fd8YkMzaE-70" value="" style="endArrow=none;dashed=1;html=1;strokeWidth=1;rounded=0;entryX=0.241;entryY=0.943;entryDx=0;entryDy=0;entryPerimeter=0;exitX=0.5;exitY=0;exitDx=0;exitDy=0;sketch=1;curveFitting=1;jiggle=2;fillColor=#f8cecc;strokeColor=#b85450;" edge="1" parent="1" source="aUqH27gMJ72fd8YkMzaE-41" target="aUqH27gMJ72fd8YkMzaE-3">
          <mxGeometry width="50" height="50" relative="1" as="geometry">
            <mxPoint x="1127" y="767" as="sourcePoint" />
            <mxPoint x="1306" y="627" as="targetPoint" />
          </mxGeometry>
        </mxCell>
        <mxCell id="aUqH27gMJ72fd8YkMzaE-71" value="" style="endArrow=none;dashed=1;html=1;strokeWidth=1;rounded=0;entryX=0.561;entryY=1.026;entryDx=0;entryDy=0;entryPerimeter=0;exitX=0.073;exitY=0.026;exitDx=0;exitDy=0;sketch=1;curveFitting=1;jiggle=2;fillColor=#f8cecc;strokeColor=#b85450;exitPerimeter=0;" edge="1" parent="1" source="aUqH27gMJ72fd8YkMzaE-44" target="aUqH27gMJ72fd8YkMzaE-3">
          <mxGeometry width="50" height="50" relative="1" as="geometry">
            <mxPoint x="1231" y="990" as="sourcePoint" />
            <mxPoint x="1355" y="708" as="targetPoint" />
          </mxGeometry>
        </mxCell>
        <mxCell id="aUqH27gMJ72fd8YkMzaE-72" value="" style="endArrow=none;dashed=1;html=1;strokeWidth=1;rounded=0;entryX=0.899;entryY=0.834;entryDx=0;entryDy=0;entryPerimeter=0;exitX=-0.01;exitY=0.152;exitDx=0;exitDy=0;sketch=1;curveFitting=1;jiggle=2;fillColor=#f8cecc;strokeColor=#b85450;exitPerimeter=0;" edge="1" parent="1" source="aUqH27gMJ72fd8YkMzaE-53" target="aUqH27gMJ72fd8YkMzaE-3">
          <mxGeometry width="50" height="50" relative="1" as="geometry">
            <mxPoint x="1555" y="992" as="sourcePoint" />
            <mxPoint x="1425" y="722" as="targetPoint" />
          </mxGeometry>
        </mxCell>
        <mxCell id="aUqH27gMJ72fd8YkMzaE-73" value="" style="endArrow=none;dashed=1;html=1;strokeWidth=1;rounded=0;entryX=0.978;entryY=0.376;entryDx=0;entryDy=0;entryPerimeter=0;exitX=-0.019;exitY=0.881;exitDx=0;exitDy=0;sketch=1;curveFitting=1;jiggle=2;fillColor=#f8cecc;strokeColor=#b85450;exitPerimeter=0;" edge="1" parent="1" source="aUqH27gMJ72fd8YkMzaE-47" target="aUqH27gMJ72fd8YkMzaE-3">
          <mxGeometry width="50" height="50" relative="1" as="geometry">
            <mxPoint x="1638" y="794" as="sourcePoint" />
            <mxPoint x="1498" y="691" as="targetPoint" />
          </mxGeometry>
        </mxCell>
        <mxCell id="aUqH27gMJ72fd8YkMzaE-74" value="" style="endArrow=none;dashed=1;html=1;strokeWidth=1;rounded=0;entryX=0.567;entryY=0.009;entryDx=0;entryDy=0;entryPerimeter=0;exitX=0.381;exitY=1.056;exitDx=0;exitDy=0;sketch=1;curveFitting=1;jiggle=2;fillColor=#f8cecc;strokeColor=#b85450;exitPerimeter=0;" edge="1" parent="1" source="aUqH27gMJ72fd8YkMzaE-50" target="aUqH27gMJ72fd8YkMzaE-3">
          <mxGeometry width="50" height="50" relative="1" as="geometry">
            <mxPoint x="1626" y="584" as="sourcePoint" />
            <mxPoint x="1515" y="618" as="targetPoint" />
          </mxGeometry>
        </mxCell>
        <mxCell id="aUqH27gMJ72fd8YkMzaE-75" value="" style="rounded=0;whiteSpace=wrap;html=1;fillColor=none;strokeColor=none;" vertex="1" parent="1">
          <mxGeometry width="1900" height="1170" as="geometry" />
        </mxCell>
      </root>
    </mxGraphModel>
  </diagram>
</mxfile>
